<svg xmlns="http://www.w3.org/2000/svg" viewBox="0 0 64 64" width="128" height="128">
  <rect x="1" y="1" width="62" height="62" rx="14" fill="#FFFFFF" stroke="#D8DEE4" stroke-width="1.5"/>
  <line x1="32" y1="7" x2="32" y2="45" stroke="#6B7785" stroke-width="4" stroke-linecap="round"/>
  <rect x="6" y="9" width="24" height="18" rx="6" fill="#E5484D"/>
  <path d="M20 25 L29 25 L30 32 Z" fill="#E5484D"/>
  <rect x="34" y="15" width="24" height="17" rx="6" fill="#3E7BFA"/>
  <path d="M35 30 L44 30 L34 37 Z" fill="#3E7BFA"/>
  <path d="M4 41 C6 50 11 55 18 55 L46 55 C53 55 58 50 60 41 C56 45 52 46 46 46 L18 46 C12 46 8 45 4 41 Z" fill="#B26B2E"/>
</svg>
